# xmcd
#
# Track frame offsets:
#	150
#	17220
#	33963
#	49465
#	65058
#	77635
#	98026
#	112675
#	130324
#	160275
#
# Disc length: 2385 seconds
#
# Revision: 0
# Processed by: cddbd v1.5.2PL0 Copyright (c) Steve Scherf et al.
# Submitted via: audiograbber 1.83.01
#
DISCID=7e094f0a
DTITLE=Various Artist - ASK1209
DYEAR=2012
DGENRE=Country
TTITLE0=Dierks Bentley - Country and Cold Cans
TTITLE1=Colt Ford and Jason Aldean - Drivin' Around Song
TTITLE2=Luke Bryan - Kiss Tomorrow Goodbye
TTITLE3=Glen Campbell - Outta My Head
TTITLE4=Eric Church - Over When It's Over
TTITLE5=Taylor Swift - Ronan
TTITLE6=Eli Young Band - Say Goodnight
TTITLE7=Little Big Town - Tornado
TTITLE8=Darius Rucker - True Believers
TTITLE9=Data - Data Track
EXTD=
EXTT0=
EXTT1=
EXTT2=
EXTT3=
EXTT4=
EXTT5=
EXTT6=
EXTT7=
EXTT8=
EXTT9=
PLAYORDER=
